Coordinates
version=1
nRows=5
nColumns=40
inDegrees=yes

Units are S.I. units (second, meters, Newtons, ...)
Angles are in degrees.

endheader
time	pelvis_tilt	pelvis_list	pelvis_rotation	pelvis_tx	pelvis_ty	pelvis_tz	hip_flexion_r	hip_adduction_r	hip_rotation_r	knee_angle_r	knee_angle_r_beta	ankle_angle_r	subtalar_angle_r	mtp_angle_r	hip_flexion_l	hip_adduction_l	hip_rotation_l	knee_angle_l	knee_angle_l_beta	ankle_angle_l	subtalar_angle_l	mtp_angle_l	lumbar_extension	lumbar_bending	lumbar_rotation	arm_flex_r	arm_add_r	arm_rot_r	elbow_flex_r	pro_sup_r	wrist_flex_r	wrist_dev_r	arm_flex_l	arm_add_l	arm_rot_l	elbow_flex_l	pro_sup_l	wrist_flex_l	wrist_dev_l
     14.03000000	     -2.95448370	     -4.64750085	      1.66277600	      1.02174393	      0.93212525	      0.50475103	      9.58201808	      2.98811354	    -16.31374459	     16.06722093	     16.06722093	     10.98712659	      1.25245711	     -4.25426503	     27.14993828	    -14.49466915	     -0.21475917	     56.69224540	     56.69224540	      9.92858811	    -16.04652885	      7.52109840	     -9.65235867	      6.05485686	      2.73041714	     16.46562359	    -18.86901402	      1.73168348	     50.75741028	     45.43102723	      0.00000000	      0.00000000	      6.78922771	     -9.08624622	    -11.00744793	     31.05804675	     45.37522763	      0.00000000	      0.00000000
     14.04378571	     -3.19330139	     -4.46024652	      2.09823543	      1.02032172	      0.93227538	      0.50564448	      9.28720271	      2.91245018	    -16.55118687	     15.63305467	     15.63305467	     11.10604025	      1.19501859	     -4.24388163	     28.47698524	    -14.39355309	     -0.51918102	     54.47182325	     54.47182325	     10.04661953	    -16.43767421	      7.73943196	     -9.54388815	      5.77873003	      2.70151450	     17.86542914	    -19.07553506	      1.54064578	     51.77547165	     45.41065957	      0.00000000	      0.00000000	      5.65416986	     -8.83983295	    -10.88474392	     30.23933183	     45.34761393	      0.00000000	      0.00000000
     14.05757143	     -3.37902360	     -4.40291602	      2.57146409	      1.01892682	      0.93230303	      0.50653030	      9.01389997	      2.95773311	    -16.86247024	     15.35077512	     15.35077512	     11.26301096	      1.05230931	     -4.26528305	     29.62098295	    -14.41000489	     -0.86587633	     51.98847743	     51.98847743	     10.16493074	    -16.53105479	      8.00505089	     -9.46390225	      5.65682137	      2.85121280	     19.16163158	    -19.51183724	      1.32773688	     52.66183095	     45.39531233	      0.00000000	      0.00000000	      4.62164750	     -8.52595398	    -10.78919033	     29.65870053	     45.32091168	      0.00000000	      0.00000000
     14.07135714	     -3.43994640	     -4.18468813	      3.08818255	      1.01770147	      0.93271211	      0.50711099	      8.34935871	      2.88930062	    -17.14127190	     14.58705005	     14.58705005	     11.28982797	      1.09968265	     -4.24379033	     30.30670091	    -13.99913452	     -1.05608140	     48.99783016	     48.99783016	      9.93461618	    -17.20315597	      8.42164357	     -9.56935001	      5.39246844	      2.12724518	     20.61158180	    -19.27116774	      1.25623700	     54.95128596	     45.32476890	      0.00000000	      0.00000000	      3.29939382	     -8.54865169	    -10.52107078	     28.48730919	     45.27343080	      0.00000000	      0.00000000
     14.08514286	     -3.57352557	     -4.16703155	      3.52347725	      1.01642791	      0.93260566	      0.50766323	      7.91851297	      2.97953056	    -17.52477749	     14.08072428	     14.08072428	     11.21203452	      1.21465829	     -4.88290550	     31.01439807	    -13.86511633	     -1.36404259	     45.91659293	     45.91659293	      9.60663196	    -17.33747852	      8.06784405	     -9.67090384	      5.40049752	      2.72150619	     20.53377725	    -20.55033469	      1.48062905	     59.56133046	     45.16421970	      0.00000000	      0.00000000	      2.79854943	     -8.30531762	     -9.16126305	     27.15714414	     45.11909045	      0.00000000	      0.00000000
